<svg width="268" height="48" viewBox="0 0 268 48" fill="none" xmlns="http://www.w3.org/2000/svg">
<path d="M37.0465 18.6928C37.0458 21.7044 36.3109 24.6704 34.9057 27.3341C33.5004 29.9977 31.4671 32.2787 28.9817 33.9796C26.4964 35.6804 23.6339 36.7498 20.6421 37.0952C17.6504 37.4405 14.6196 37.0515 11.812 35.9617V18.6928C11.8106 20.18 12.2504 21.6342 13.0756 22.8715C13.9009 24.1088 15.0746 25.0735 16.4482 25.6436C17.8218 26.2137 19.3337 26.3636 20.7925 26.0743C22.2514 25.785 23.5916 25.0695 24.6438 24.0184C25.6959 22.9672 26.4126 21.6276 26.7033 20.1691C26.9939 18.7105 26.8455 17.1985 26.2766 15.8244C25.7078 14.4502 24.7442 13.2756 23.5077 12.4492C22.2712 11.6228 20.8174 11.1817 19.3301 11.1817C18.3429 11.1811 17.3652 11.375 16.4529 11.7525C15.5406 12.13 14.7117 12.6835 14.0135 13.3815C13.3153 14.0795 12.7615 14.9082 12.3837 15.8204C12.006 16.7325 11.8117 17.7102 11.812 18.6974V18.1609H0.0112762C0.165199 13.3062 2.21996 8.70611 5.73291 5.35175C9.24586 1.99739 13.9359 0.157176 18.7926 0.227532C23.6493 0.297887 28.284 2.27319 31.6983 5.7279C35.1126 9.18261 37.0333 13.8402 37.0465 18.6974V18.6928Z" fill="white"/>
<path d="M11.8125 32.1521V47.1461H0V18.6926C0 24.8285 4.89648 30.06 11.8125 32.1521Z" fill="white"/>
<path d="M11.8125 18.1562V35.9617C8.33133 34.6108 5.34019 32.2385 3.23199 29.1565C1.12379 26.0745 -0.00287464 22.4268 5.50825e-06 18.6928C5.50825e-06 18.5124 9.79769e-06 18.339 0.0117239 18.1562H11.8125Z" fill="#4482C2"/>
<path d="M60.2637 12.5005C61.6375 11.8058 63.1597 11.4559 64.699 11.481C66.5174 11.459 68.3062 11.943 69.8655 12.879C71.4248 13.8149 72.6932 15.1658 73.529 16.7809C74.4438 18.565 74.9021 20.548 74.863 22.5525C74.8974 24.5749 74.4396 26.5752 73.529 28.3813C72.7002 30.0304 71.4294 31.4167 69.8584 32.3854C68.3061 33.3391 66.5159 33.8345 64.6942 33.8146C63.169 33.843 61.6598 33.4996 60.297 32.8142C59.0902 32.2075 58.0215 31.3586 57.1576 30.3202V43.7452H52.6865V11.8264H57.1623V15.0064C57.9979 13.9518 59.0572 13.096 60.2637 12.5005ZM69.3915 18.6937C68.8268 17.6584 67.9835 16.8019 66.9571 16.2212C65.9689 15.6631 64.8525 15.3717 63.7176 15.3756C62.5935 15.3754 61.4895 15.6738 60.5186 16.2402C59.493 16.8317 58.6506 17.6947 58.0842 18.7342C57.4461 19.9286 57.1285 21.2679 57.1623 22.6216C57.1306 23.9812 57.448 25.3261 58.0842 26.5281C58.6251 27.5537 59.4356 28.4123 60.4282 29.0117C61.4208 29.611 62.558 29.9284 63.7176 29.9296C64.8575 29.9338 65.9772 29.6284 66.9571 29.0459C67.991 28.4312 68.8338 27.5414 69.3915 26.4757C70.0272 25.265 70.3444 23.9125 70.3133 22.5454C70.3475 21.2 70.0298 19.869 69.3915 18.6842V18.6937Z" fill="white"/>
<path d="M79.1677 16.781C80.0105 15.1664 81.2838 13.8167 82.8465 12.8813C84.4093 11.9458 86.2004 11.4612 88.0216 11.4811C89.5666 11.4453 91.0968 11.7888 92.4783 12.4815C93.6632 13.0792 94.7018 13.9307 95.5201 14.9754V11.8264H100.046V33.4598H95.5201V30.2464C94.6957 31.3222 93.6366 32.1955 92.4235 32.7999C90.9188 33.5354 89.254 33.8828 87.5807 33.8104C85.9074 33.738 84.2787 33.2482 82.8431 32.3855C81.2783 31.4093 80.0092 30.025 79.1725 28.3813C78.247 26.5773 77.7814 24.5727 77.8171 22.5454C77.7777 20.5412 78.2421 18.5591 79.1677 16.781ZM94.5983 18.7342C94.0378 17.6917 93.2024 16.8226 92.183 16.2212C91.2063 15.6497 90.0941 15.351 88.9625 15.3566C87.8342 15.3513 86.7244 15.6429 85.7444 16.2022C84.7262 16.7872 83.8901 17.6431 83.3291 18.6747C82.6892 19.8623 82.3714 21.1968 82.4072 22.5454C82.377 23.9109 82.6942 25.2617 83.3291 26.471C83.8867 27.5367 84.7295 28.4265 85.7635 29.0412C86.7297 29.6214 87.8354 29.9285 88.9625 29.9296C90.0939 29.936 91.2061 29.6382 92.183 29.0674C93.2058 28.4618 94.0417 27.5856 94.5983 26.5353C95.2345 25.3334 95.5519 23.9884 95.5201 22.6288C95.5552 21.2727 95.2376 19.9307 94.5983 18.7342Z" fill="white"/>
<path d="M116.406 15.4856V11.8268H111.149V7.58447L106.623 9.01367V11.8268H104.079V15.4784H106.639V27.4527C106.639 29.5727 107.175 31.1043 108.247 32.0476C109.319 32.9909 110.864 33.4617 112.883 33.4601H116.406V29.7394H113.657C112.742 29.7394 112.092 29.5608 111.713 29.2083C111.334 28.8557 111.149 28.2698 111.149 27.4599V15.4856H116.406Z" fill="white"/>
<path d="M120.764 8.14412C120.352 7.74486 120.071 7.2311 119.955 6.66956C119.839 6.10803 119.895 5.52469 120.115 4.9953C120.335 4.46592 120.71 4.01496 121.189 3.70101C121.669 3.38707 122.232 3.22464 122.805 3.23483C123.178 3.22841 123.548 3.29844 123.893 3.4406C124.237 3.58276 124.549 3.79404 124.809 4.06138C125.337 4.60933 125.633 5.34118 125.633 6.10276C125.633 6.86433 125.337 7.59617 124.809 8.14412C124.548 8.4107 124.237 8.62131 123.892 8.76303C123.548 8.90475 123.178 8.97461 122.805 8.9683C122.427 8.9773 122.051 8.90883 121.699 8.7671C121.348 8.62537 121.03 8.41337 120.764 8.14412Z" fill="white"/>
<path d="M125.005 11.8333H120.529V33.4666H125.005V11.8333Z" fill="white"/>
<path d="M150.564 24.318H134.033C134.164 26.0474 134.806 27.4353 135.957 28.4817C137.116 29.5313 138.635 30.0936 140.197 30.0515C142.603 30.0515 144.304 29.0439 145.3 27.0287H150.13C149.493 28.9934 148.249 30.705 146.576 31.9166C144.861 33.187 142.735 33.8222 140.197 33.8222C138.255 33.8542 136.338 33.3736 134.64 32.4287C133.015 31.507 131.682 30.1456 130.796 28.5008C129.867 26.8128 129.402 24.8563 129.402 22.6316C129.402 20.4068 129.854 18.4504 130.757 16.7623C131.62 15.1164 132.944 13.7585 134.569 12.8558C136.296 11.9165 138.238 11.4429 140.204 11.4814C142.108 11.448 143.988 11.9075 145.662 12.8154C147.236 13.6839 148.53 14.9848 149.389 16.5646C150.304 18.2709 150.764 20.1838 150.726 22.1194C150.73 22.8554 150.676 23.5906 150.564 24.318ZM146.038 20.7069C146.011 19.0586 145.423 17.7366 144.273 16.7409C143.123 15.7452 141.694 15.2482 139.985 15.2497C138.524 15.2191 137.106 15.7454 136.019 16.7218C134.92 17.7032 134.266 19.0316 134.056 20.7069H146.038Z" fill="white"/>
<path d="M170.605 12.5412C171.951 13.2451 173.053 14.3395 173.766 15.6807C174.524 17.0702 174.903 18.7455 174.905 20.7067V33.467H170.477V21.3736C170.477 19.4363 169.993 17.9515 169.026 16.9193C168.059 15.8871 166.737 15.3694 165.06 15.3662C163.383 15.3662 162.055 15.8839 161.075 16.9193C160.095 17.9547 159.604 19.4395 159.603 21.3736V33.467H155.117V11.8266H159.593V14.2991C160.35 13.3923 161.312 12.6793 162.399 12.2196C163.545 11.7206 164.782 11.4667 166.032 11.4741C167.621 11.4495 169.191 11.8159 170.605 12.5412Z" fill="white"/>
<path d="M191.081 15.4854V11.8266H185.819V7.35083L181.305 8.78004V11.8266H178.751V15.4782H181.305V27.4525C181.305 29.5725 181.841 31.1041 182.913 32.0474C183.985 32.9907 185.529 33.4615 187.546 33.4599H191.081V29.7392H188.341C187.422 29.7392 186.776 29.5606 186.398 29.208C186.019 28.8555 185.828 28.2695 185.828 27.4597V15.4854H191.081Z" fill="white"/>
<path d="M208.374 12.4813C209.569 13.0648 210.61 13.9187 211.416 14.9752V11.8262H215.942V33.8121C215.975 35.6632 215.543 37.493 214.684 39.1335C213.854 40.6815 212.593 41.9563 211.054 42.8041C209.466 43.6918 207.575 44.1365 205.38 44.138C202.447 44.138 200.013 43.4512 198.077 42.0776C197.148 41.4479 196.37 40.6202 195.799 39.654C195.227 38.6878 194.877 37.607 194.773 36.4894H199.209C199.568 37.6395 200.344 38.6135 201.386 39.2192C202.588 39.9371 203.971 40.2982 205.371 40.2601C207.176 40.2601 208.636 39.7107 209.749 38.6118C210.862 37.5129 211.418 35.9162 211.416 33.8216V30.2081C210.532 31.3507 209.395 32.2718 208.093 32.8986C206.792 33.5254 205.362 33.8406 203.918 33.8192C202.097 33.8392 200.307 33.3437 198.756 32.39C197.182 31.419 195.904 30.0338 195.064 28.3859C194.138 26.5802 193.674 24.5739 193.711 22.5452C193.671 20.5384 194.136 18.5537 195.064 16.7736C195.907 15.1594 197.181 13.81 198.743 12.8746C200.306 11.9392 202.097 11.4544 203.918 11.4737C205.463 11.4461 206.992 11.7918 208.374 12.4813ZM210.494 18.734C209.935 17.691 209.099 16.8218 208.079 16.221C207.103 15.6498 205.992 15.3511 204.861 15.3564C203.732 15.3506 202.621 15.6423 201.641 16.202C200.622 16.787 199.786 17.6428 199.225 18.6745C198.585 19.8621 198.268 21.1966 198.303 22.5452C198.273 23.9107 198.59 25.2615 199.225 26.4708C199.783 27.5365 200.626 28.4263 201.66 29.0409C202.627 29.6215 203.733 29.9286 204.861 29.9294C205.992 29.9355 207.103 29.6377 208.079 29.0671C209.102 28.4632 209.939 27.5876 210.494 26.5375C211.131 25.3355 211.448 23.9905 211.416 22.631C211.452 21.2741 211.134 19.9312 210.494 18.734Z" fill="white"/>
<path d="M228.907 12.403C230.093 11.7638 231.426 11.446 232.773 11.4811V16.1141H231.634C229.887 16.1141 228.559 16.5588 227.649 17.448C226.739 18.3373 226.288 19.8817 226.296 22.081V33.467H221.82V11.8265H226.296V14.9684C226.924 13.897 227.825 13.0117 228.907 12.403Z" fill="white"/>
<path d="M237.132 8.14412C236.721 7.74486 236.439 7.2311 236.323 6.66956C236.208 6.10803 236.263 5.52469 236.484 4.9953C236.704 4.46592 237.078 4.01496 237.558 3.70101C238.037 3.38707 238.6 3.22464 239.174 3.23483C239.546 3.22817 239.916 3.2981 240.26 3.44029C240.604 3.58247 240.915 3.79388 241.175 4.06138C241.705 4.60876 242.001 5.34082 242.001 6.10276C242.001 6.86469 241.705 7.59674 241.175 8.14412C240.915 8.41085 240.604 8.6216 240.259 8.76335C239.915 8.9051 239.546 8.97484 239.174 8.9683C238.795 8.9773 238.419 8.90883 238.068 8.7671C237.717 8.62537 237.398 8.41337 237.132 8.14412Z" fill="white"/>
<path d="M241.372 11.8333H236.896V33.4666H241.372V11.8333Z" fill="white"/>
<path d="M247.122 16.7807C247.968 15.1604 249.248 13.8071 250.818 12.8713C252.389 11.9356 254.188 11.4541 256.016 11.4807C257.459 11.4874 258.884 11.8016 260.196 12.4025C261.472 12.9427 262.596 13.7847 263.474 14.856V4.41333H268V33.4737H263.474V30.208C262.684 31.3045 261.64 32.1936 260.432 32.7996C259.052 33.4985 257.522 33.8485 255.976 33.8191C254.155 33.8391 252.365 33.3436 250.814 32.3899C249.24 31.4182 247.963 30.0332 247.122 28.3858C246.196 26.5801 245.731 24.5737 245.769 22.5451C245.73 20.5407 246.195 18.5586 247.122 16.7807ZM262.552 18.7339C261.992 17.6909 261.157 16.8216 260.137 16.2209C259.161 15.6494 258.05 15.3508 256.919 15.3562C255.79 15.3505 254.679 15.6422 253.698 16.2018C252.681 16.787 251.846 17.6429 251.285 18.6744C250.644 19.8614 250.325 21.1962 250.361 22.5451C250.33 23.9109 250.649 25.262 251.285 26.4706C251.842 27.5362 252.684 28.4261 253.717 29.0408C254.684 29.6214 255.791 29.9284 256.919 29.9293C258.049 29.9356 259.161 29.6378 260.137 29.067C261.161 28.4625 261.997 27.586 262.552 26.535C263.188 25.333 263.506 23.988 263.474 22.6285C263.509 21.2724 263.191 19.9304 262.552 18.7339Z" fill="white"/>
</svg>
