<svg width="190" height="34" viewBox="0 0 190 34" fill="none" xmlns="http://www.w3.org/2000/svg">
<path d="M26.2643 13.3415C26.2638 15.4766 25.7428 17.5794 24.7466 19.4679C23.7503 21.3563 22.3088 22.9734 20.5467 24.1792C18.7847 25.385 16.7554 26.1432 14.6344 26.388C12.5133 26.6329 10.3646 26.357 8.3742 25.5844V13.3415C8.37321 14.3959 8.68498 15.4269 9.27004 16.3041C9.85511 17.1813 10.6872 17.8652 11.661 18.2694C12.6349 18.6736 13.7067 18.7798 14.741 18.5747C15.7752 18.3696 16.7254 17.8624 17.4713 17.1172C18.2172 16.372 18.7254 15.4222 18.9314 14.3882C19.1375 13.3541 19.0322 12.2822 18.629 11.308C18.2257 10.3338 17.5425 9.50103 16.6659 8.91514C15.7893 8.32926 14.7586 8.01653 13.7042 8.01653C13.0043 8.0161 12.3111 8.15361 11.6644 8.42121C11.0176 8.68881 10.4299 9.08125 9.93494 9.57609C9.43994 10.0709 9.04731 10.6585 8.77951 11.3052C8.51171 11.9518 8.37398 12.6449 8.3742 13.3449V12.9645H0.00798798C0.117112 9.52269 1.57384 6.26146 4.06437 3.88337C6.5549 1.50528 9.8799 0.200646 13.3231 0.250525C16.7663 0.300404 20.0521 1.7008 22.4727 4.15004C24.8933 6.59927 26.2549 9.90133 26.2643 13.3449V13.3415Z" fill="#77AEF6"/>
<path d="M8.37452 22.8839V33.514H0V13.3417C0 17.6918 3.47139 21.4007 8.37452 22.8839Z" fill="#77AEF6"/>
<path d="M8.37453 12.9614V25.5846C5.90654 24.6269 3.78596 22.9451 2.29134 20.76C0.796715 18.575 -0.00203799 15.989 3.90511e-06 13.3417C3.90511e-06 13.2138 6.94612e-06 13.0909 0.00831171 12.9614H8.37453Z" fill="#4482C2"/>
<path d="M42.7242 8.95131C43.6982 8.45878 44.7774 8.21071 45.8686 8.22853C47.1579 8.21296 48.426 8.5561 49.5315 9.21962C50.6369 9.88313 51.5362 10.8409 52.1288 11.986C52.7773 13.2508 53.1022 14.6566 53.0745 16.0778C53.0989 17.5115 52.7743 18.9297 52.1288 20.2101C51.5412 21.3792 50.6402 22.3621 49.5264 23.0488C48.4259 23.7249 47.1568 24.0762 45.8653 24.0621C44.784 24.0822 43.714 23.8387 42.7479 23.3528C41.8923 22.9227 41.1346 22.3208 40.5221 21.5847V31.1024H37.3524V8.47339H40.5255V10.7278C41.1179 9.98024 41.8689 9.37347 42.7242 8.95131ZM49.1954 13.342C48.7951 12.608 48.1973 12.0008 47.4696 11.5891C46.7689 11.1935 45.9775 10.9869 45.1729 10.9896C44.3759 10.9895 43.5933 11.201 42.9049 11.6026C42.1779 12.0219 41.5806 12.6337 41.179 13.3707C40.7267 14.2175 40.5015 15.167 40.5255 16.1267C40.503 17.0906 40.728 18.0441 41.179 18.8962C41.5626 19.6233 42.1371 20.2321 42.8408 20.657C43.5446 21.0819 44.3508 21.3069 45.1729 21.3077C45.9811 21.3108 46.7749 21.0942 47.4696 20.6812C48.2026 20.2455 48.8001 19.6146 49.1954 18.8591C49.6461 18.0008 49.871 17.0419 49.849 16.0727C49.8732 15.1189 49.648 14.1752 49.1954 13.3352V13.342Z" fill="#282828"/>
<path d="M56.1263 11.986C56.7239 10.8414 57.6266 9.88449 58.7345 9.22131C59.8424 8.55812 61.1122 8.21453 62.4034 8.22862C63.4987 8.20324 64.5836 8.44678 65.563 8.93789C66.403 9.36163 67.1393 9.96532 67.7195 10.706V8.47349H70.9281V23.8105H67.7195V21.5324C67.135 22.2951 66.3842 22.9143 65.5241 23.3428C64.4573 23.8642 63.277 24.1105 62.0907 24.0591C60.9044 24.0078 59.7498 23.6605 58.7321 23.0489C57.6226 22.3569 56.7229 21.3754 56.1297 20.2102C55.4736 18.9312 55.1435 17.51 55.1688 16.0728C55.1409 14.6519 55.4701 13.2467 56.1263 11.986ZM67.0659 13.3708C66.6685 12.6317 66.0763 12.0156 65.3536 11.5892C64.6612 11.184 63.8726 10.9723 63.0704 10.9762C62.2705 10.9724 61.4837 11.1792 60.7889 11.5757C60.067 11.9904 59.4743 12.5972 59.0766 13.3286C58.6229 14.1706 58.3976 15.1167 58.423 16.0728C58.4016 17.0408 58.6265 17.9985 59.0766 18.8558C59.4719 19.6114 60.0694 20.2422 60.8024 20.6779C61.4875 21.0893 62.2713 21.307 63.0704 21.3078C63.8725 21.3124 64.6611 21.1012 65.3536 20.6965C66.0788 20.2672 66.6713 19.646 67.0659 18.9014C67.517 18.0493 67.742 17.0957 67.7195 16.1319C67.7444 15.1705 67.5192 14.2191 67.0659 13.3708Z" fill="#282828"/>
<path d="M82.5263 11.0675V8.47362H78.7993V5.46599L75.5907 6.47923V8.47362H73.7872V11.0624H75.6026V19.5517C75.6026 21.0547 75.9825 22.1405 76.7424 22.8093C77.5024 23.478 78.5978 23.8118 80.0287 23.8107H82.5263V21.1729H80.5776C79.9291 21.1729 79.4681 21.0462 79.1995 20.7963C78.931 20.5463 78.7993 20.1309 78.7993 19.5568V11.0675H82.5263Z" fill="#282828"/>
<path d="M85.6162 5.86261C85.3245 5.57955 85.1247 5.21532 85.0427 4.81722C84.9607 4.41911 85.0002 4.00555 85.1563 3.63024C85.3124 3.25493 85.5777 2.93522 85.9178 2.71265C86.2579 2.49007 86.6571 2.37492 87.0635 2.38214C87.3277 2.37759 87.59 2.42724 87.8343 2.52802C88.0786 2.62881 88.2996 2.7786 88.4837 2.96813C88.8587 3.35661 89.0682 3.87545 89.0682 4.41537C89.0682 4.9553 88.8587 5.47414 88.4837 5.86261C88.2992 6.0516 88.0781 6.20091 87.8339 6.30139C87.5897 6.40187 87.3275 6.45139 87.0635 6.44692C86.7952 6.4533 86.5284 6.40476 86.2795 6.30428C86.0306 6.2038 85.8049 6.0535 85.6162 5.86261Z" fill="#282828"/>
<path d="M88.6229 8.47839H85.4497V23.8154H88.6229V8.47839Z" fill="#282828"/>
<path d="M106.743 17.3292H95.0232C95.1166 18.5552 95.5714 19.5392 96.3876 20.2811C97.209 21.0252 98.2857 21.4238 99.3936 21.394C101.099 21.394 102.305 20.6797 103.011 19.251H106.436C105.984 20.6438 105.102 21.8573 103.916 22.7163C102.7 23.6169 101.193 24.0673 99.3936 24.0673C98.0163 24.09 96.6574 23.7492 95.4538 23.0793C94.3015 22.4259 93.3568 21.4607 92.7282 20.2946C92.0696 19.0979 91.7403 17.7109 91.7403 16.1336C91.7403 14.5563 92.0606 13.1693 92.7011 11.9726C93.3125 10.8057 94.2517 9.843 95.4031 9.20304C96.6279 8.53712 98.0048 8.20132 99.3987 8.22864C100.748 8.20493 102.081 8.53071 103.268 9.17434C104.384 9.79007 105.301 10.7124 105.91 11.8324C106.559 13.0421 106.885 14.3983 106.858 15.7705C106.861 16.2923 106.822 16.8135 106.743 17.3292ZM103.534 14.7691C103.515 13.6005 103.098 12.6632 102.283 11.9574C101.468 11.2515 100.455 10.8991 99.2433 10.9002C98.2075 10.8785 97.2023 11.2516 96.4316 11.9438C95.6525 12.6396 95.1886 13.5814 95.04 14.7691H103.534Z" fill="#282828"/>
<path d="M120.951 8.98036C121.906 9.47942 122.687 10.2553 123.192 11.2061C123.729 12.1912 123.998 13.3789 124 14.7693V23.8159H120.86V15.2422C120.86 13.8687 120.517 12.816 119.832 12.0843C119.146 11.3525 118.209 10.9854 117.02 10.9832C115.831 10.9832 114.889 11.3502 114.195 12.0843C113.5 12.8183 113.152 13.8709 113.151 15.2422V23.8159H109.971V8.47374H113.144V10.2266C113.681 9.58375 114.363 9.0783 115.134 8.75239C115.946 8.39861 116.823 8.21857 117.709 8.22381C118.836 8.20639 119.949 8.46619 120.951 8.98036Z" fill="#282828"/>
<path d="M135.468 11.0674V8.4735H131.737V5.30037L128.537 6.31361V8.4735H126.727V11.0623H128.537V19.5516C128.537 21.0545 128.917 22.1404 129.677 22.8091C130.437 23.4779 131.532 23.8117 132.961 23.8105H135.468V21.1727H133.525C132.874 21.1727 132.416 21.0461 132.147 20.7962C131.879 20.5462 131.744 20.1308 131.744 19.5566V11.0674H135.468Z" fill="#282828"/>
<path d="M147.728 8.93787C148.575 9.35155 149.313 9.95695 149.885 10.706V8.47347H153.093V24.0605C153.117 25.3728 152.81 26.6701 152.202 27.8331C151.613 28.9306 150.719 29.8343 149.628 30.4354C148.502 31.0647 147.161 31.38 145.605 31.3811C143.526 31.3811 141.8 30.8942 140.428 29.9203C139.769 29.4739 139.217 28.8871 138.812 28.2021C138.407 27.5171 138.159 26.7509 138.086 25.9586H141.23C141.484 26.774 142.035 27.4644 142.773 27.8939C143.626 28.4028 144.606 28.6588 145.599 28.6318C146.879 28.6318 147.913 28.2423 148.703 27.4632C149.492 26.6842 149.886 25.5522 149.885 24.0672V21.5054C149.258 22.3154 148.451 22.9685 147.529 23.4128C146.606 23.8572 145.593 24.0807 144.569 24.0655C143.278 24.0797 142.009 23.7284 140.909 23.0523C139.793 22.3639 138.887 21.3818 138.292 20.2135C137.635 18.9334 137.306 17.511 137.332 16.0728C137.304 14.65 137.634 13.2429 138.292 11.981C138.889 10.8366 139.792 9.87987 140.9 9.21672C142.008 8.55357 143.278 8.20984 144.569 8.22354C145.664 8.20401 146.748 8.44905 147.728 8.93787ZM149.231 13.3708C148.834 12.6313 148.242 12.0151 147.519 11.5892C146.827 11.1842 146.039 10.9725 145.237 10.9762C144.437 10.9721 143.649 11.1789 142.954 11.5757C142.232 11.9904 141.64 12.5972 141.242 13.3286C140.788 14.1706 140.563 15.1167 140.588 16.0728C140.567 17.0408 140.792 17.9985 141.242 18.8558C141.637 19.6113 142.235 20.2422 142.968 20.6779C143.653 21.0895 144.438 21.3072 145.237 21.3078C146.039 21.3121 146.827 21.101 147.519 20.6965C148.244 20.2684 148.837 19.6476 149.231 18.9031C149.682 18.051 149.907 17.0974 149.885 16.1335C149.91 15.1716 149.685 14.2195 149.231 13.3708Z" fill="#282828"/>
<path d="M162.285 8.88222C163.126 8.42906 164.071 8.20376 165.026 8.22869V11.5133H164.218C162.98 11.5133 162.038 11.8285 161.393 12.459C160.748 13.0894 160.428 14.1843 160.434 15.7435V23.8157H157.261V8.47355H160.434V10.701C160.879 9.94143 161.518 9.31375 162.285 8.88222Z" fill="#282828"/>
<path d="M168.116 5.86261C167.825 5.57955 167.625 5.21532 167.543 4.81722C167.461 4.41911 167.5 4.00555 167.656 3.63024C167.812 3.25493 168.078 2.93522 168.418 2.71265C168.758 2.49007 169.157 2.37492 169.563 2.38214C169.827 2.37742 170.09 2.427 170.334 2.5278C170.578 2.62861 170.798 2.77848 170.982 2.96813C171.358 3.3562 171.568 3.8752 171.568 4.41537C171.568 4.95555 171.358 5.47454 170.982 5.86261C170.798 6.05171 170.577 6.20112 170.333 6.30162C170.089 6.40211 169.827 6.45156 169.563 6.44692C169.295 6.4533 169.028 6.40476 168.779 6.30428C168.531 6.2038 168.305 6.0535 168.116 5.86261Z" fill="#282828"/>
<path d="M171.122 8.47839H167.949V23.8154H171.122V8.47839Z" fill="#282828"/>
<path d="M175.198 11.986C175.798 10.8374 176.706 9.87789 177.819 9.21447C178.932 8.55106 180.208 8.20976 181.504 8.2286C182.527 8.23332 183.537 8.45612 184.468 8.88214C185.372 9.26511 186.169 9.86203 186.791 10.6215V3.21814H190V23.8207H186.791V21.5054C186.231 22.2827 185.491 22.9131 184.635 23.3427C183.656 23.8382 182.572 24.0864 181.475 24.0655C180.184 24.0797 178.916 23.7284 177.816 23.0523C176.7 22.3634 175.794 21.3815 175.198 20.2135C174.542 18.9334 174.213 17.511 174.239 16.0728C174.212 14.6517 174.541 13.2465 175.198 11.986ZM186.138 13.3708C185.741 12.6313 185.149 12.0151 184.425 11.5892C183.734 11.184 182.946 10.9723 182.144 10.9762C181.343 10.9721 180.556 11.1789 179.861 11.5757C179.139 11.9905 178.547 12.5973 178.15 13.3286C177.695 14.1701 177.469 15.1164 177.495 16.0728C177.473 17.0411 177.699 17.9989 178.15 18.8558C178.545 19.6112 179.142 20.2421 179.874 20.6779C180.56 21.0895 181.344 21.3072 182.144 21.3078C182.945 21.3123 183.733 21.1011 184.425 20.6965C185.151 20.2679 185.744 19.6465 186.138 18.9014C186.589 18.0493 186.814 17.0957 186.791 16.1319C186.816 15.1704 186.591 14.219 186.138 13.3708Z" fill="#282828"/>
</svg>
