<svg width="30" height="35" viewBox="0 0 30 35" fill="none" xmlns="http://www.w3.org/2000/svg">
<circle cx="15" cy="15.12" r="15" fill="#2A0896"/>
<circle cx="15" cy="19.92" r="15" fill="#2A0896" fill-opacity="0.28"/>
<path fill-rule="evenodd" clip-rule="evenodd" d="M12.2101 10.4291L16.3296 15.1201L12.2101 19.8112C11.9334 20.1125 11.9284 20.5954 12.2047 20.8968C12.4811 21.1981 12.9242 21.1925 13.2006 20.8911L17.7847 15.6705C17.788 15.667 17.7921 15.6647 17.7955 15.6609C17.9281 15.5163 17.9941 15.3298 17.9982 15.1416C17.9984 15.1341 18 15.1269 18 15.1196C18 15.1124 17.9985 15.1048 17.9982 15.0976C17.9941 14.9094 17.928 14.7229 17.7955 14.5784C17.7922 14.5749 17.7883 14.5723 17.7847 14.5688L13.201 9.34885C12.9246 9.0475 12.4815 9.04185 12.2051 9.3432C11.9284 9.64455 11.9338 10.1276 12.2101 10.4289L12.2101 10.4291Z" fill="white"/>
</svg>
