<svg width="50" height="51" viewBox="0 0 50 51" fill="none" xmlns="http://www.w3.org/2000/svg">
<rect width="50" height="51" fill="#F5F5F5"/>
<g clip-path="url(#clip0_0_1)">
<rect x="-1241" y="-3900" width="1440" height="4179" fill="#F8F8F8"/>
<rect x="-1244" y="-138" width="1440" height="417" fill="#2A0896"/>
<rect x="-255" y="1.83154" width="301" height="50" rx="25" fill="white"/>
<circle cx="25" cy="25.8315" r="25" fill="#2A52BE"/>
<path fill-rule="evenodd" clip-rule="evenodd" d="M19.3501 18.0134L26.2159 25.8318L19.3501 33.6502C18.889 34.1524 18.8806 34.9573 19.3412 35.4595C19.8019 35.9618 20.5404 35.9524 21.001 35.4501L28.6412 26.749C28.6466 26.7432 28.6534 26.7393 28.6591 26.733C28.8802 26.4921 28.9902 26.1813 28.997 25.8676C28.9973 25.8551 29 25.843 29 25.8309C29 25.8189 28.9975 25.8063 28.997 25.7942C28.9902 25.4806 28.88 25.1698 28.6591 24.9288C28.6537 24.923 28.6471 24.9187 28.6412 24.9129L21.0016 16.213C20.541 15.7107 19.8025 15.7013 19.3418 16.2036C18.8807 16.7058 18.8896 17.5108 19.3502 18.0131L19.3501 18.0134Z" fill="white"/>
</g>
<rect x="-1240.5" y="-3899.5" width="1439" height="4178" stroke="black" stroke-opacity="0.5"/>
<defs>
<clipPath id="clip0_0_1">
<rect x="-1241" y="-3900" width="1440" height="4179" fill="white"/>
</clipPath>
</defs>
</svg>
