<svg width="14" height="15" viewBox="0 0 14 15" fill="none" xmlns="http://www.w3.org/2000/svg">
<path fill-rule="evenodd" clip-rule="evenodd" d="M4.70611 10.075C6.12117 11.4977 8.52011 11.4815 9.89191 10.0055C10.0384 9.84211 10.3022 9.76015 10.4954 9.89413C10.7026 10.0623 10.6947 10.401 10.5234 10.5895C8.82879 12.4215 5.85314 12.4558 4.09553 10.6938C2.36491 8.95901 2.36491 6.1283 4.09553 4.39354C5.85429 2.63041 8.70966 2.66159 10.4532 4.42826C10.6101 4.58376 10.7087 4.82496 10.5795 5.02632C10.4195 5.26388 10.0741 5.26252 9.87779 5.06798C8.30985 3.72989 6.24406 3.43723 4.70612 5.00538C3.32793 6.41084 3.31208 8.67333 4.70612 10.0747L4.70611 10.075ZM7.23332 0.831543C10.9703 0.831543 14 3.83392 14 7.53714C14 11.2404 10.9703 14.2427 7.23332 14.2427C3.49637 14.2427 0.466644 11.2404 0.466644 7.53714C0.466644 3.83392 3.49637 0.831543 7.23332 0.831543ZM7.23332 1.47401C3.85425 1.47401 1.11505 4.18833 1.11505 7.53705C1.11505 10.8856 3.8541 13.6001 7.23332 13.6001C10.6124 13.6001 13.3516 10.8858 13.3516 7.53705C13.3516 4.18848 10.6125 1.47401 7.23332 1.47401Z" fill="white"/>
</svg>
