<svg width="18" height="18" viewBox="0 0 18 18" fill="none" xmlns="http://www.w3.org/2000/svg">
<path d="M2.58332 17.25C2.07915 17.25 1.6474 17.0706 1.28807 16.7119C0.929346 16.3526 0.749985 15.9208 0.749985 15.4167V2.58333C0.749985 2.07917 0.929346 1.64742 1.28807 1.28808C1.6474 0.929361 2.07915 0.75 2.58332 0.75H15.4167C15.9208 0.75 16.3526 0.929361 16.7119 1.28808C17.0706 1.64742 17.25 2.07917 17.25 2.58333V15.4167C17.25 15.9208 17.0706 16.3526 16.7119 16.7119C16.3526 17.0706 15.9208 17.25 15.4167 17.25H2.58332ZM8.99998 12.6667C9.58054 12.6667 10.1076 12.4986 10.5812 12.1625C11.0548 11.8264 11.3833 11.3833 11.5667 10.8333H15.4167V2.58333H2.58332V10.8333H6.43332C6.61665 11.3833 6.94512 11.8264 7.41873 12.1625C7.89235 12.4986 8.41943 12.6667 8.99998 12.6667Z" fill="#2397F3"/>
</svg>
